<svg xmlns="http://www.w3.org/2000/svg" viewBox="0 0 256 256">
  <polygon points="128,28 208,82 188,204 68,204 48,82" fill="#081F3F"/>

  <path
    d="M128 48
       L160 126
       L140 118
       L128 210
       L116 118
       L96 126 Z"
    fill="#FFFFFF"
  />

  <path
    d="M128 48
       L160 126
       L140 118
       L128 148
       L116 118
       L96 126 Z"
    fill="#37D7FF"
  />

  <g stroke="#37D7FF" stroke-width="8" stroke-linecap="round">
    <path d="M80 88 L108 104"/>
    <path d="M176 88 L148 104"/>
    <path d="M70 154 L104 144"/>
    <path d="M186 154 L152 144"/>
  </g>

  <circle cx="128" cy="108" r="9" fill="#081F3F"/>
  <circle cx="128" cy="108" r="4" fill="#FFFFFF"/>

  <path
    d="M78 54 L83 67 L96 72 L83 77 L78 90 L73 77 L60 72 L73 67 Z"
    fill="#FFFFFF"
  />
</svg>