<svg xmlns="http://www.w3.org/2000/svg" viewBox="0 0 256 256" width="256" height="256" role="img" aria-label="SpaceNix constellation network logo">
  <defs>
    <linearGradient id="c2-line" x1="0" y1="0" x2="1" y2="1">
      <stop offset="0" stop-color="#f0b429" stop-opacity="0.4"/>
      <stop offset="1" stop-color="#fde68a" stop-opacity="0.9"/>
    </linearGradient>
    <radialGradient id="c2-node" cx="0.35" cy="0.32" r="0.8">
      <stop offset="0" stop-color="#fef3c7"/>
      <stop offset="0.5" stop-color="#f0b429"/>
      <stop offset="1" stop-color="#7c2d12"/>
    </radialGradient>
    <radialGradient id="c2-glow" cx="0.5" cy="0.5" r="0.5">
      <stop offset="0" stop-color="#f0b429" stop-opacity="0.4"/>
      <stop offset="1" stop-color="#f0b429" stop-opacity="0"/>
    </radialGradient>
  </defs>

  <g stroke="url(#c2-line)" stroke-width="2.4" stroke-linecap="round" fill="none">
    <path d="M 56 80 L 128 48 L 200 80 L 176 168 L 80 168 Z"/>
    <path d="M 128 48 L 128 120 L 176 168"/>
    <path d="M 128 120 L 80 168"/>
    <path d="M 56 80 L 128 120 L 200 80"/>
  </g>

  <g>
    <circle cx="128" cy="48" r="14" fill="url(#c2-glow)"/>
    <circle cx="128" cy="48" r="9" fill="url(#c2-node)"/>
    <circle cx="56" cy="80" r="7" fill="url(#c2-node)"/>
    <circle cx="200" cy="80" r="7" fill="url(#c2-node)"/>
    <circle cx="128" cy="120" r="8" fill="url(#c2-node)"/>
    <circle cx="80" cy="168" r="7" fill="url(#c2-node)"/>
    <circle cx="176" cy="168" r="7" fill="url(#c2-node)"/>
  </g>

  <g stroke="#fef3c7" stroke-width="1.4" stroke-linecap="round" opacity="0.85">
    <path d="M 128 30 L 128 38 M 110 39 L 116 45 M 146 39 L 140 45"/>
  </g>
</svg>
